<?xml version="1.0" encoding="utf-8"?>
<!-- Generator: Adobe Illustrator 27.1.1, SVG Export Plug-In . SVG Version: 6.00 Build 0)  -->
<svg version="1.1" id="Capa_1" xmlns="http://www.w3.org/2000/svg" xmlns:xlink="http://www.w3.org/1999/xlink" x="0px" y="0px"
	 viewBox="0 0 185.86 185.86" style="enable-background:new 0 0 185.86 185.86;" xml:space="preserve">
<style type="text/css">
	.st0{fill:none;stroke:#FF3233;stroke-width:3.083;stroke-linejoin:round;stroke-miterlimit:10;}
	.st1{fill:#FF3233;}
	.st2{fill:none;}
	.st3{fill:none;stroke:#FF3233;stroke-width:2.3;stroke-linejoin:round;stroke-miterlimit:10;}
</style>
<g>
	<path class="st0" d="M82.26,133.57c-11.79,5.63-22.3,1.34-28.81-3.29c-2.02-1.44-3.79-3.25-5.01-5.42
		c-5.42-9.63,1.91-19.53,9.82-22.39c14.11-4.21,17.08-14.84,17.08-14.84c2.8-6.02,8.93-7.68,14.44-7.36
		c4.23,0.23,8.06,1.69,9.81,3.15c10.26,8.58,8.73,16.57,5.39,24.9c-2.4,5.98-6.56,11.59-10.59,15.93c-1.74,1.89-3.48,3.52-5.2,4.9"
		/>
	<path class="st0" d="M133.37,109.33c-2.02,1.45-4.39,2.33-6.84,2.78c-6.11,1.13-14.31,1.03-21.55-3.81
		c3.34-8.33,3.25-17.41-5.39-24.9c-1.72-1.5-5.58-2.91-9.81-3.15c-2.03-12.21-0.46-27.01,14.81-30.14c9.75-2,18.56,1.94,20.06,12.19
		c0.13,0.87,0.12,1.74,0.06,2.61c-0.18,2.6-0.05,11.68,9.25,19.95C139.91,90.83,142.37,102.89,133.37,109.33z"/>
	<path class="st0" d="M82.63,96.56c0,0-4.95,8-15.09,11.67"/>
	<path class="st0" d="M114.32,68.94c0,0,0.37,9.4,7.39,17.59"/>
</g>
</svg>
